<svg width="64" height="64" viewBox="0 0 64 64" fill="none" xmlns="http://www.w3.org/2000/svg">
<g clip-path="url(#clip0)">
<path d="M32.06 4H31.48L32.06 4.42C34.5931 6.16966 36.751 8.4078 38.4071 11.003C40.0632 13.5982 41.1841 16.4981 41.7039 19.5325C42.2238 22.5668 42.1321 25.6745 41.4343 28.6729C40.7365 31.6714 39.4467 34.5002 37.6405 36.9933C35.8343 39.4863 33.5483 41.5934 30.9165 43.1907C28.2847 44.7881 25.3603 45.8435 22.3151 46.295C19.2698 46.7465 16.165 46.5849 13.1829 45.8199C10.2009 45.0549 7.40184 43.7018 4.95001 41.84C6.9529 47.1757 10.5363 51.7732 15.2216 55.0182C19.9068 58.2632 25.4708 60.0012 31.17 60H32.06C39.4861 60 46.608 57.05 51.859 51.799C57.11 46.548 60.06 39.4261 60.06 32C60.06 24.5739 57.11 17.452 51.859 12.201C46.608 6.94999 39.4861 4 32.06 4Z" fill="#B13FFF"/>
<path d="M20.45 29.54L19.45 29.35C19.2312 29.3108 19.0254 29.2182 18.8509 29.0804C18.6765 28.9426 18.5388 28.7638 18.45 28.56L18.06 27.66C17.9591 27.4289 17.7954 27.2308 17.5876 27.088C17.3798 26.9451 17.1361 26.8634 16.8842 26.8519C16.6323 26.8405 16.3823 26.8998 16.1624 27.0232C15.9425 27.1465 15.7615 27.3291 15.64 27.55L15.16 28.41C15.054 28.6015 14.9031 28.7644 14.7202 28.8846C14.5373 29.0048 14.3279 29.0787 14.11 29.1L13.11 29.2C12.8579 29.223 12.6174 29.3164 12.4159 29.4696C12.2144 29.6227 12.06 29.8294 11.9703 30.0661C11.8806 30.3028 11.8593 30.56 11.9088 30.8082C11.9582 31.0564 12.0765 31.2857 12.25 31.47L12.92 32.19C13.0688 32.3499 13.1766 32.5436 13.2341 32.7544C13.2915 32.9651 13.297 33.1867 13.25 33.4L13.04 34.4C12.9815 34.6534 12.9974 34.9183 13.0858 35.1628C13.1742 35.4074 13.3314 35.6212 13.5384 35.7786C13.7454 35.9359 13.9935 36.0302 14.2527 36.0499C14.512 36.0697 14.7715 36.0142 15 35.89L15.89 35.47C16.089 35.3767 16.3079 35.3333 16.5274 35.3438C16.747 35.3542 16.9607 35.4182 17.15 35.53L18 36C18.2167 36.1211 18.4626 36.1801 18.7107 36.1705C18.9588 36.1609 19.1994 36.0831 19.4061 35.9456C19.6128 35.8082 19.7776 35.6164 19.8824 35.3913C19.9872 35.1663 20.0279 34.9167 20 34.67L19.88 33.67C19.8519 33.4524 19.8773 33.2312 19.954 33.0256C20.0307 32.8199 20.1563 32.6361 20.32 32.49L21.06 31.84C21.2384 31.6733 21.3683 31.4614 21.4358 31.2267C21.5033 30.992 21.5059 30.7435 21.4433 30.5075C21.3807 30.2715 21.2552 30.0568 21.0803 29.8865C20.9054 29.7161 20.6876 29.5964 20.45 29.54Z" fill="#FEDB41"/>
<path d="M12.91 19.76L12.79 18.76C12.7619 18.5424 12.7873 18.3212 12.864 18.1155C12.9407 17.9099 13.0663 17.7261 13.23 17.58L14 17C14.1899 16.833 14.329 16.6161 14.4016 16.3739C14.4741 16.1317 14.4773 15.8741 14.4106 15.6302C14.3439 15.3863 14.21 15.1661 14.0243 14.9946C13.8386 14.823 13.6084 14.7071 13.36 14.66L12.36 14.47C12.1412 14.4308 11.9354 14.3382 11.7609 14.2004C11.5865 14.0626 11.4488 13.8838 11.36 13.68L10.97 12.78C10.8691 12.5489 10.7054 12.3508 10.4976 12.208C10.2898 12.0651 10.0462 11.9834 9.79426 11.9719C9.54236 11.9605 9.2923 12.0198 9.07239 12.1432C8.85249 12.2665 8.67153 12.4491 8.55003 12.67L8.07002 13.53C7.95742 13.7167 7.80127 13.8733 7.61493 13.9865C7.42859 14.0997 7.21761 14.1661 7.00003 14.18L6.00003 14.28C5.74796 14.303 5.50745 14.3964 5.30593 14.5496C5.10441 14.7027 4.95 14.9094 4.86033 15.1461C4.77066 15.3828 4.74933 15.64 4.79879 15.8882C4.84824 16.1364 4.96649 16.3657 5.14002 16.55L5.81003 17.27C5.95883 17.4299 6.06659 17.6236 6.12407 17.8344C6.18155 18.0451 6.18702 18.2667 6.14003 18.48L5.93002 19.48C5.86551 19.7342 5.87641 20.0016 5.96139 20.2497C6.04637 20.4977 6.20176 20.7157 6.40857 20.8769C6.61539 21.0381 6.86467 21.1356 7.12598 21.1575C7.38728 21.1793 7.6493 21.1246 7.88003 21L8.77003 20.58C8.96197 20.4857 9.17359 20.4383 9.38744 20.4418C9.60128 20.4452 9.81125 20.4995 10 20.6L10.85 21.1C11.0686 21.2392 11.3226 21.3125 11.5817 21.3112C11.8408 21.31 12.094 21.2342 12.3112 21.0929C12.5284 20.9516 12.7004 20.7508 12.8066 20.5145C12.9127 20.2781 12.9487 20.0162 12.91 19.76Z" fill="#FEDB41"/>
<path d="M30.32 17.29L29.32 17.1C29.1012 17.0608 28.8954 16.9682 28.7209 16.8304C28.5465 16.6926 28.4088 16.5138 28.32 16.31L27.93 15.41C27.829 15.1789 27.6654 14.9808 27.4576 14.838C27.2498 14.6951 27.0061 14.6134 26.7542 14.6019C26.5023 14.5905 26.2523 14.6498 26.0324 14.7732C25.8125 14.8965 25.6315 15.0791 25.51 15.3L25.03 16.16C24.924 16.3515 24.7731 16.5144 24.5902 16.6346C24.4072 16.7548 24.1978 16.8287 23.98 16.85L22.98 16.95C22.7279 16.973 22.4874 17.0664 22.2859 17.2196C22.0844 17.3727 21.93 17.5794 21.8403 17.8161C21.7506 18.0528 21.7293 18.31 21.7788 18.5582C21.8282 18.8064 21.9465 19.0357 22.12 19.22L22.79 19.94C22.9388 20.0999 23.0466 20.2936 23.104 20.5044C23.1615 20.7151 23.167 20.9367 23.12 21.15L22.91 22.15C22.8543 22.3965 22.8688 22.6537 22.952 22.8923C23.0353 23.1309 23.1838 23.3414 23.3807 23.4998C23.5776 23.6581 23.8151 23.758 24.066 23.7881C24.3169 23.8182 24.5712 23.7773 24.8 23.67L25.69 23.25C25.889 23.1567 26.1079 23.1133 26.3274 23.1238C26.547 23.1342 26.7607 23.1982 26.95 23.31L27.8 23.81C28.0167 23.9311 28.2626 23.9901 28.5107 23.9805C28.7588 23.9709 28.9994 23.8931 29.2061 23.7556C29.4128 23.6182 29.5776 23.4264 29.6824 23.2013C29.7872 22.9763 29.8279 22.7267 29.8 22.48L29.68 21.48C29.6519 21.2624 29.6773 21.0412 29.754 20.8356C29.8306 20.6299 29.9563 20.4461 30.12 20.3L30.86 19.65C31.0553 19.4909 31.2022 19.2804 31.2841 19.0422C31.3659 18.804 31.3796 18.5477 31.3234 18.3022C31.2672 18.0567 31.1435 17.8318 30.9662 17.6529C30.7888 17.474 30.565 17.3483 30.32 17.29Z" fill="#FEDB41"/>
<g opacity="0.15">
<path opacity="0.15" d="M59.17 32C59.1737 24.7256 56.3462 17.7353 51.2861 12.5091C46.2261 7.28298 39.3307 4.23122 32.06 4V4.39C35.0432 6.52835 37.474 9.34682 39.1508 12.6119C40.8277 15.8769 41.7023 19.4945 41.7023 23.165C41.7023 26.8355 40.8277 30.4531 39.1508 33.7181C37.474 36.9832 35.0432 39.8016 32.06 41.94V60C39.3307 59.7688 46.2261 56.717 51.2861 51.4909C56.3462 46.2647 59.1737 39.2744 59.17 32Z" fill="black"/>
</g>
</g>
<defs>
<clipPath id="clip0">
<rect width="64" height="64" fill="white"/>
</clipPath>
</defs>
</svg>
