<svg width="63" height="63" viewBox="0 0 63 63" fill="none" xmlns="http://www.w3.org/2000/svg">
<path fill-rule="evenodd" clip-rule="evenodd" d="M14.9625 0H46.4625C47.9062 0 49.0875 1.18125 49.0875 2.625V60.375C49.0875 61.8187 47.9062 63 46.4625 63H14.9625C13.5187 63 12.3375 61.8187 12.3375 60.375V2.625C12.3375 1.18125 13.5187 0 14.9625 0ZM14.9625 7.875V55.125H46.4625V7.875H14.9625Z" fill="#5C6061"/>
<path d="M46.4625 7.875H14.9625V42H46.4625V7.875Z" fill="#5ABFC7"/>
<path d="M46.4625 42H14.9625V55.125H46.4625V42Z" fill="#0093CE"/>
<path fill-rule="evenodd" clip-rule="evenodd" d="M26.775 2.625H34.65C35.3718 2.625 35.9625 3.21562 35.9625 3.9375C35.9625 4.65937 35.3718 5.25 34.65 5.25H26.775C26.0531 5.25 25.4625 4.65937 25.4625 3.9375C25.4625 3.21562 26.0531 2.625 26.775 2.625Z" fill="#2B2D2D"/>
<path fill-rule="evenodd" clip-rule="evenodd" d="M20.2125 5.25C20.9343 5.25 21.525 4.65937 21.525 3.9375C21.525 3.21562 20.9343 2.625 20.2125 2.625C19.4906 2.625 18.9 3.21562 18.9 3.9375C18.9 4.65937 19.4906 5.25 20.2125 5.25Z" fill="#2B2D2D"/>
<path fill-rule="evenodd" clip-rule="evenodd" d="M28.0875 57.75H33.3375C34.0593 57.75 34.65 58.3406 34.65 59.0625C34.65 59.7844 34.0593 60.375 33.3375 60.375H28.0875C27.3656 60.375 26.775 59.7844 26.775 59.0625C26.775 58.3406 27.3656 57.75 28.0875 57.75Z" fill="#2B2D2D"/>
<path fill-rule="evenodd" clip-rule="evenodd" d="M19.2281 13.125H22.5093C23.4281 13.125 24.15 13.8469 24.15 14.7656V18.0469C24.15 18.9656 23.4281 19.6875 22.5093 19.6875H19.2281C18.3093 19.6875 17.5875 18.9656 17.5875 18.0469V14.7656C17.5875 13.8469 18.3093 13.125 19.2281 13.125Z" fill="#C5A86C"/>
<path fill-rule="evenodd" clip-rule="evenodd" d="M29.0718 13.125H32.3531C33.2718 13.125 33.9937 13.8469 33.9937 14.7656V18.0469C33.9937 18.9656 33.2718 19.6875 32.3531 19.6875H29.0718C28.1531 19.6875 27.4312 18.9656 27.4312 18.0469V14.7656C27.4312 13.8469 28.1531 13.125 29.0718 13.125Z" fill="#839A8F"/>
<path fill-rule="evenodd" clip-rule="evenodd" d="M38.9156 13.125H42.1968C43.1156 13.125 43.8375 13.8469 43.8375 14.7656V18.0469C43.8375 18.9656 43.1156 19.6875 42.1968 19.6875H38.9156C37.9968 19.6875 37.275 18.9656 37.275 18.0469V14.7656C37.275 13.8469 37.9968 13.125 38.9156 13.125Z" fill="#4CA3AB"/>
<path fill-rule="evenodd" clip-rule="evenodd" d="M19.2281 22.3125H22.5093C23.4281 22.3125 24.15 23.0344 24.15 23.9531V27.2344C24.15 28.1531 23.4281 28.875 22.5093 28.875H19.2281C18.3093 28.875 17.5875 28.1531 17.5875 27.2344V23.9531C17.5875 23.0344 18.3093 22.3125 19.2281 22.3125Z" fill="#9EC645"/>
<path fill-rule="evenodd" clip-rule="evenodd" d="M29.0718 22.3125H32.3531C33.2718 22.3125 33.9937 23.0344 33.9937 23.9531V27.2344C33.9937 28.1531 33.2718 28.875 32.3531 28.875H29.0718C28.1531 28.875 27.4312 28.1531 27.4312 27.2344V23.9531C27.4312 23.0344 28.1531 22.3125 29.0718 22.3125Z" fill="#C8C475"/>
<path fill-rule="evenodd" clip-rule="evenodd" d="M38.9156 22.3125H42.1968C43.1156 22.3125 43.8375 23.0344 43.8375 23.9531V27.2344C43.8375 28.1531 43.1156 28.875 42.1968 28.875H38.9156C37.9968 28.875 37.275 28.1531 37.275 27.2344V23.9531C37.275 23.0344 37.9968 22.3125 38.9156 22.3125Z" fill="#E5A456"/>
<path fill-rule="evenodd" clip-rule="evenodd" d="M19.2281 31.5H22.5093C23.4281 31.5 24.15 32.2219 24.15 33.1406V36.4219C24.15 37.3406 23.4281 38.0625 22.5093 38.0625H19.2281C18.3093 38.0625 17.5875 37.3406 17.5875 36.4219V33.1406C17.5875 32.2219 18.3093 31.5 19.2281 31.5Z" fill="#C5A86C"/>
<path fill-rule="evenodd" clip-rule="evenodd" d="M29.0718 31.5H32.3531C33.2718 31.5 33.9937 32.2219 33.9937 33.1406V36.4219C33.9937 37.3406 33.2718 38.0625 32.3531 38.0625H29.0718C28.1531 38.0625 27.4312 37.3406 27.4312 36.4219V33.1406C27.4312 32.2219 28.1531 31.5 29.0718 31.5Z" fill="#BB639E"/>
<path fill-rule="evenodd" clip-rule="evenodd" d="M38.9156 31.5H42.1968C43.1156 31.5 43.8375 32.2219 43.8375 33.1406V36.4219C43.8375 37.3406 43.1156 38.0625 42.1968 38.0625H38.9156C37.9968 38.0625 37.275 37.3406 37.275 36.4219V33.1406C37.275 32.2219 37.9968 31.5 38.9156 31.5Z" fill="#C18D63"/>
<path fill-rule="evenodd" clip-rule="evenodd" d="M18.9 9.1875H42.525C43.2468 9.1875 43.8375 9.77812 43.8375 10.5C43.8375 11.2219 43.2468 11.8125 42.525 11.8125H18.9C18.1781 11.8125 17.5875 11.2219 17.5875 10.5C17.5875 9.77812 18.1781 9.1875 18.9 9.1875Z" fill="#A1BBAE"/>
<path d="M35.9625 43.3125C36.6873 43.3125 37.275 42.7249 37.275 42C37.275 41.2751 36.6873 40.6875 35.9625 40.6875C35.2376 40.6875 34.65 41.2751 34.65 42C34.65 42.7249 35.2376 43.3125 35.9625 43.3125Z" fill="#C3CACB"/>
<path d="M30.7125 43.3125C31.4373 43.3125 32.025 42.7249 32.025 42C32.025 41.2751 31.4373 40.6875 30.7125 40.6875C29.9876 40.6875 29.4 41.2751 29.4 42C29.4 42.7249 29.9876 43.3125 30.7125 43.3125Z" fill="#C3CACB"/>
<path d="M25.4625 43.3125C26.1873 43.3125 26.775 42.7249 26.775 42C26.775 41.2751 26.1873 40.6875 25.4625 40.6875C24.7376 40.6875 24.15 41.2751 24.15 42C24.15 42.7249 24.7376 43.3125 25.4625 43.3125Z" fill="#2B2D2D"/>
<path fill-rule="evenodd" clip-rule="evenodd" d="M19.2281 45.9375H22.5093C23.4281 45.9375 24.15 46.6594 24.15 47.5781V50.8594C24.15 51.7781 23.4281 52.5 22.5093 52.5H19.2281C18.3093 52.5 17.5875 51.7781 17.5875 50.8594V47.5781C17.5875 46.6594 18.3093 45.9375 19.2281 45.9375Z" fill="#9EC645"/>
<path fill-rule="evenodd" clip-rule="evenodd" d="M29.0718 45.9375H32.3531C33.2718 45.9375 33.9937 46.6594 33.9937 47.5781V50.8594C33.9937 51.7781 33.2718 52.5 32.3531 52.5H29.0718C28.1531 52.5 27.4312 51.7781 27.4312 50.8594V47.5781C27.4312 46.6594 28.1531 45.9375 29.0718 45.9375Z" fill="#E18882"/>
<path fill-rule="evenodd" clip-rule="evenodd" d="M38.9156 45.9375H42.1968C43.1156 45.9375 43.8375 46.6594 43.8375 47.5781V50.8594C43.8375 51.7781 43.1156 52.5 42.1968 52.5H38.9156C37.9968 52.5 37.275 51.7781 37.275 50.8594V47.5781C37.275 46.6594 37.9968 45.9375 38.9156 45.9375Z" fill="#A1BBAE"/>
<path fill-rule="evenodd" clip-rule="evenodd" d="M20.8687 17.7188C21.5906 17.7188 22.1812 17.1281 22.1812 16.4062C22.1812 15.6844 21.5906 15.0938 20.8687 15.0938C20.1468 15.0938 19.5562 15.6844 19.5562 16.4062C19.5562 17.1281 20.1468 17.7188 20.8687 17.7188Z" fill="#7F8272"/>
<path fill-rule="evenodd" clip-rule="evenodd" d="M29.4 33.4688H32.025C32.7468 33.4688 33.3375 34.0594 33.3375 34.7812C33.3375 35.5031 32.7468 36.0938 32.025 36.0938H29.4C28.6781 36.0938 28.0875 35.5031 28.0875 34.7812C28.0875 34.0594 28.6781 33.4688 29.4 33.4688Z" fill="#DB3D57"/>
<path fill-rule="evenodd" clip-rule="evenodd" d="M40.5562 28.2188C42 28.2188 43.1812 27.0375 43.1812 25.5938C43.1812 24.15 42 22.9688 40.5562 22.9688C39.1125 22.9688 37.9312 24.15 37.9312 25.5938C37.9312 27.0375 39.1125 28.2188 40.5562 28.2188Z" fill="#EBC32E"/>
<path fill-rule="evenodd" clip-rule="evenodd" d="M20.8687 50.5312C21.5906 50.5312 22.1812 49.9406 22.1812 49.2188C22.1812 48.4969 21.5906 47.9062 20.8687 47.9062C20.1468 47.9062 19.5562 48.4969 19.5562 49.2188C19.5562 49.9406 20.1468 50.5312 20.8687 50.5312Z" fill="#EBC32E"/>
</svg>
