<svg width="49" height="64" viewBox="0 0 49 64" fill="none" xmlns="http://www.w3.org/2000/svg">
<g clip-path="url(#clip0)">
<path fill-rule="evenodd" clip-rule="evenodd" d="M43.0767 4.23512C44.1154 4.24147 45.1353 4.85135 45.7778 5.85724C46.2464 6.59418 46.5082 7.52806 46.5117 8.45771C46.5341 25.4074 46.5341 42.357 46.5117 59.3066C46.5065 60.4946 46.0793 61.6636 45.3627 62.4514C44.7425 63.1332 43.9139 63.525 43.0767 63.5292C32.7339 63.5483 22.391 63.5483 12.0482 63.5292C11.0784 63.5229 10.1257 62.9956 9.48317 62.1062C8.93365 61.3459 8.61668 60.3379 8.61323 59.3066C8.59084 42.357 8.59084 25.4074 8.61323 8.45771C8.6184 7.29512 9.03011 6.13677 9.72951 5.349C10.3548 4.64383 11.1955 4.23935 12.0482 4.23512C22.391 4.21606 32.7339 4.21606 43.0767 4.23512Z" fill="#F2F2F2"/>
<path fill-rule="evenodd" clip-rule="evenodd" d="M27.5625 4.22083C32.7339 4.22083 37.9053 4.22506 43.0767 4.23565C44.1155 4.242 45.1353 4.85188 45.7779 5.85777C46.2464 6.59471 46.5083 7.52859 46.5117 8.45824C46.5341 25.4079 46.5341 42.3575 46.5117 59.3072C46.5066 60.4952 46.0793 61.6641 45.3627 62.4519C44.7426 63.1338 43.914 63.5255 43.0767 63.5298C37.9053 63.5404 32.7339 63.5446 27.5625 63.5446V4.22083V4.22083Z" fill="#D9D9D9"/>
<path d="M19.6611 17.8179L23.3165 13.3264C23.4268 13.2014 23.4509 13.1654 23.5767 13.0638C23.7644 12.9092 23.9763 12.8012 24.1985 12.7461C24.345 12.7101 24.3846 12.7144 24.5345 12.7059C24.5896 12.7101 24.6464 12.7122 24.7033 12.7165C24.7584 12.7271 24.8153 12.7334 24.8704 12.7461C25.5319 12.9092 26.09 13.5805 26.2227 14.4106C26.3226 15.0226 26.1899 15.6812 25.8661 16.1661C25.8299 16.2212 25.7903 16.2699 25.7524 16.3207L20.879 22.3115C20.8376 22.3581 20.798 22.4068 20.755 22.4492C20.6344 22.572 20.5 22.6715 20.3587 22.7478C20.2623 22.8007 20.1606 22.8452 20.0538 22.8748C19.9763 22.8981 19.8971 22.9129 19.8178 22.9214C19.7093 22.9341 19.6008 22.9341 19.4922 22.9214C19.3389 22.9024 19.1891 22.8558 19.0461 22.7859C18.8463 22.6927 18.6602 22.5572 18.5017 22.3793C18.4759 22.3497 18.469 22.3412 18.4431 22.3115L16.0073 19.3151C15.9815 19.2833 15.9746 19.2769 15.9505 19.2431C15.5784 18.7391 15.4199 18.0064 15.5474 17.3351C15.6714 16.6871 16.0573 16.1238 16.562 15.8633C16.7498 15.768 16.9513 15.7129 17.1546 15.7024C17.1908 15.7002 17.1994 15.7002 17.2356 15.7002C17.2493 15.7002 17.2631 15.7024 17.2769 15.7024C17.3114 15.7045 17.3217 15.7045 17.3579 15.7066C17.7627 15.7447 18.1486 15.9671 18.4431 16.3207L19.6611 17.8179V17.8179Z" fill="#76FF03"/>
<path d="M38.0673 16.9518C38.1225 16.9624 38.1793 16.9687 38.2344 16.9814C38.7891 17.1169 39.2749 17.6082 39.4903 18.2478C39.6832 18.8238 39.6591 19.5035 39.4179 20.0562C39.1785 20.6068 38.7323 21.0134 38.2344 21.1362C38.0863 21.1722 38.0484 21.168 37.8985 21.1765H29.2852C29.2284 21.1722 29.1733 21.1722 29.1164 21.1659C28.4446 21.0854 27.8365 20.4819 27.6367 19.6729C27.4575 18.9445 27.6246 18.1059 28.0673 17.5616C28.3068 17.2673 28.6168 17.064 28.9493 16.9814C29.0975 16.9454 29.1354 16.9496 29.2852 16.9412H37.8985C37.9554 16.9454 38.0105 16.9475 38.0673 16.9518V16.9518Z" fill="black"/>
<path d="M38.0673 16.9518C38.1225 16.9624 38.1793 16.9687 38.2344 16.9814C38.7891 17.1169 39.2749 17.6082 39.4903 18.2478C39.6832 18.8238 39.6591 19.5035 39.4179 20.0562C39.1785 20.6068 38.7323 21.0134 38.2344 21.1362C38.0863 21.1722 38.0484 21.168 37.8985 21.1765H29.2852C29.2284 21.1722 29.1733 21.1722 29.1164 21.1659C28.4446 21.0854 27.8365 20.4819 27.6367 19.6729C27.4575 18.9445 27.6246 18.1059 28.0673 17.5616C28.3068 17.2673 28.6168 17.064 28.9493 16.9814C29.0975 16.9454 29.1354 16.9496 29.2852 16.9412H37.8985C37.9554 16.9454 38.0105 16.9475 38.0673 16.9518V16.9518Z" fill="#262626"/>
<path d="M37.8991 55.0588H17.2272C17.0773 55.0503 17.0394 55.0546 16.8913 55.0186C16.3934 54.8958 15.9473 54.4892 15.7078 53.9386C15.4701 53.3901 15.4408 52.7103 15.6355 52.1301C15.8715 51.4313 16.4313 50.9103 17.0584 50.8341C17.1152 50.8278 17.1704 50.8278 17.2272 50.8235H37.8991C37.9559 50.8278 38.0111 50.8299 38.0679 50.8341C38.2161 50.8616 38.2557 50.8616 38.3987 50.9146C38.8844 51.0967 39.2962 51.5541 39.4908 52.1301C39.6838 52.7061 39.6596 53.3859 39.4185 53.9386C39.1532 54.5506 38.6329 54.9805 38.0679 55.0482C38.0111 55.0546 37.9559 55.0546 37.8991 55.0588V55.0588ZM37.8991 46.5882H17.2272C17.0773 46.5798 17.0394 46.584 16.8913 46.548C16.3383 46.4125 15.8525 45.9254 15.6355 45.2816C15.3995 44.5786 15.4977 43.723 15.8956 43.128C16.1816 42.6981 16.6088 42.4165 17.0584 42.3635C17.1152 42.3572 17.1704 42.3572 17.2272 42.3529H37.8991C37.9559 42.3572 38.0111 42.3593 38.0679 42.3635C38.123 42.3741 38.1799 42.3805 38.235 42.3932C38.8982 42.5562 39.4546 43.2275 39.589 44.0576C39.6993 44.7374 39.5167 45.4786 39.117 45.9678C38.8776 46.2621 38.5675 46.4654 38.235 46.548C38.0869 46.584 38.049 46.5798 37.8991 46.5882V46.5882ZM37.8991 38.1176H17.2272C17.0773 38.1092 17.0394 38.1134 16.8913 38.0774C16.2849 37.9292 15.7612 37.3532 15.5786 36.6141C15.384 35.8221 15.6027 34.8988 16.135 34.3631C16.3952 34.0983 16.7207 33.9332 17.0584 33.8929C17.1152 33.8866 17.1704 33.8866 17.2272 33.8823H37.8991C37.9559 33.8866 38.0111 33.8887 38.0679 33.8929C38.2161 33.9205 38.2557 33.9205 38.3987 33.9734C38.8844 34.1555 39.2962 34.6129 39.4908 35.1889C39.6838 35.7649 39.6596 36.4447 39.4185 36.9974C39.1532 37.6094 38.6329 38.0393 38.0679 38.1071C38.0111 38.1134 37.9559 38.1134 37.8991 38.1176V38.1176ZM37.8991 29.6471H17.2272C17.0773 29.6386 17.0394 29.6428 16.8913 29.6068C16.3383 29.4713 15.8525 28.9842 15.6355 28.3405C15.3771 27.5739 15.5218 26.6294 16.0093 26.0322C16.2884 25.6892 16.6639 25.4689 17.0584 25.4223C17.1152 25.416 17.1704 25.416 17.2272 25.4118H37.8991C37.9559 25.416 38.0111 25.4181 38.0679 25.4223C38.2161 25.4499 38.2557 25.4499 38.3987 25.5028C38.8844 25.6849 39.2962 26.1423 39.4908 26.7183C39.6838 27.2943 39.6596 27.9741 39.4185 28.5268C39.1532 29.1388 38.6329 29.5687 38.0679 29.6365C38.0111 29.6428 37.9559 29.6428 37.8991 29.6471V29.6471Z" fill="#262626"/>
<path d="M27.5631 50.8235V55.0588H17.2272C17.0773 55.0503 17.0394 55.0546 16.8913 55.0186C16.3934 54.8958 15.9473 54.4892 15.7078 53.9386C15.4701 53.3901 15.4408 52.7103 15.6355 52.1301C15.8715 51.4313 16.4313 50.9103 17.0584 50.8341C17.1152 50.8278 17.1704 50.8278 17.2272 50.8235H27.5631V50.8235ZM27.5631 42.3529V46.5882H17.2272C17.0773 46.5798 17.0394 46.584 16.8913 46.548C16.3383 46.4125 15.8525 45.9254 15.6355 45.2816C15.3995 44.5786 15.4977 43.723 15.8956 43.128C16.1816 42.6981 16.6088 42.4165 17.0584 42.3635C17.1152 42.3572 17.1704 42.3572 17.2272 42.3529H27.5631V42.3529ZM27.5631 33.8823V38.1176H17.2272C17.0773 38.1092 17.0394 38.1134 16.8913 38.0774C16.2849 37.9292 15.7612 37.3532 15.5786 36.6141C15.384 35.8221 15.6027 34.8988 16.135 34.3631C16.3952 34.0983 16.7207 33.9332 17.0584 33.8929C17.1152 33.8866 17.1704 33.8866 17.2272 33.8823H27.5631V33.8823ZM27.5631 25.4118V29.6471H17.2272C17.0773 29.6386 17.0394 29.6428 16.8913 29.6068C16.3383 29.4713 15.8525 28.9842 15.6355 28.3405C15.3771 27.5739 15.5218 26.6294 16.0093 26.0322C16.2884 25.6892 16.6639 25.4689 17.0584 25.4223C17.1152 25.416 17.1704 25.416 17.2272 25.4118H27.5631V25.4118Z" fill="#4D4D4D"/>
</g>
<defs>
<clipPath id="clip0">
<rect width="49" height="64" fill="white"/>
</clipPath>
</defs>
</svg>
